PathFileType	4	(X/Y/Z)	E:/New_biomech_experiments/MICROGRAVITY MOCAP/Session 2024-06-22/Neeraj_StickPose_22_06_24.trc	
DataRate	CameraRate	NumFrames	NumMarkers	Units	OrigDataRate	OrigDataStartFrame	OrigNumFrames	
120.00	120.00	18	19	m	120.00	786	1570	
Frame#	Time	 RSHO			 RBAK			 LBHD			 RUPA			 PRSHO			 RWRA			 RELB			 RFRM			 CLAV			 STRN			 ARSHO			 RFHD			 LFHD			 DIA			 C7			 RBHD			 MRELB			 RWRB			 T10			
		X1	Y1	Z1	X2	Y2	Z2	X3	Y3	Z3	X4	Y4	Z4	X5	Y5	Z5	X6	Y6	Z6	X7	Y7	Z7	X8	Y8	Z8	X9	Y9	Z9	X10	Y10	Z10	X11	Y11	Z11	X12	Y12	Z12	X13	Y13	Z13	X14	Y14	Z14	X15	Y15	Z15	X16	Y16	Z16	X17	Y17	Z17	X18	Y18	Z18	X19	Y19	Z19	

786	6.542	-0.01111	1.51664	0.18801	-0.11971	1.36339	0.04871	-0.04478	1.71657	-0.08099	0.00344	1.30402	0.23568	-0.09899	1.46506	0.13328	0.04420	0.88493	0.21479	-0.00148	1.16210	0.24389	0.00690	1.02702	0.25582	0.10238	1.48491	-0.02568	0.14471	1.32315	-0.01893	0.08365	1.46044	0.14072	0.05908	1.81438	0.05927	0.07083	1.82829	-0.04311	0.08376	1.16570	0.13897	-0.09074	1.53054	-0.01882	-0.06464	1.71671	0.02249	-0.06267	1.14463	0.14050	-0.05027	0.86433	0.24081	-0.11034	1.33410	-0.02155 
787	6.550	-0.01109	1.51663	0.18802	-0.11970	1.36339	0.04871	-0.04475	1.71657	-0.08099	0.00345	1.30400	0.23569	-0.09897	1.46506	0.13329	0.04417	0.88492	0.21479	-0.00148	1.16209	0.24392	0.00687	1.02701	0.25582	0.10239	1.48490	-0.02568	0.14472	1.32313	-0.01894	0.08367	1.46043	0.14072	0.05912	1.81438	0.05928	0.07087	1.82829	-0.04311	0.08378	1.16569	0.13897	-0.09074	1.53060	-0.01881	-0.06463	1.71675	0.02248	-0.06269	1.14463	0.14050	-0.05031	0.86433	0.24081	-0.11032	1.33410	-0.02154 
788	6.558	-0.01107	1.51662	0.18802	-0.11968	1.36339	0.04871	-0.04472	1.71658	-0.08099	0.00345	1.30399	0.23569	-0.09896	1.46506	0.13329	0.04414	0.88492	0.21479	-0.00149	1.16208	0.24394	0.00685	1.02700	0.25583	0.10240	1.48489	-0.02568	0.14472	1.32311	-0.01894	0.08368	1.46041	0.14072	0.05916	1.81438	0.05928	0.07090	1.82828	-0.04311	0.08379	1.16568	0.13897	-0.09073	1.53062	-0.01881	-0.06462	1.71678	0.02248	-0.06271	1.14464	0.14050	-0.05035	0.86433	0.24081	-0.11030	1.33410	-0.02153 
789	6.567	-0.01106	1.51661	0.18802	-0.11966	1.36338	0.04871	-0.04470	1.71658	-0.08099	0.00344	1.30399	0.23570	-0.09894	1.46506	0.13329	0.04411	0.88491	0.21479	-0.00151	1.16207	0.24395	0.00682	1.02700	0.25584	0.10242	1.48488	-0.02568	0.14471	1.32310	-0.01894	0.08370	1.46040	0.14072	0.05920	1.81437	0.05928	0.07093	1.82828	-0.04312	0.08380	1.16568	0.13896	-0.09070	1.53061	-0.01880	-0.06459	1.71679	0.02249	-0.06273	1.14464	0.14051	-0.05039	0.86433	0.24081	-0.11028	1.33411	-0.02153 
790	6.575	-0.01103	1.51661	0.18802	-0.11964	1.36338	0.04871	-0.04467	1.71658	-0.08100	0.00343	1.30398	0.23570	-0.09892	1.46506	0.13329	0.04409	0.88491	0.21479	-0.00152	1.16206	0.24395	0.00680	1.02699	0.25584	0.10243	1.48487	-0.02568	0.14471	1.32308	-0.01894	0.08372	1.46038	0.14071	0.05924	1.81437	0.05927	0.07095	1.82828	-0.04313	0.08381	1.16567	0.13896	-0.09068	1.53058	-0.01880	-0.06454	1.71680	0.02251	-0.06274	1.14465	0.14052	-0.05042	0.86433	0.24081	-0.11027	1.33411	-0.02152 
791	6.583	-0.01101	1.51660	0.18801	-0.11963	1.36338	0.04871	-0.04465	1.71658	-0.08100	0.00344	1.30398	0.23570	-0.09890	1.46507	0.13329	0.04406	0.88490	0.21479	-0.00154	1.16206	0.24395	0.00679	1.02699	0.25585	0.10245	1.48486	-0.02569	0.14471	1.32306	-0.01895	0.08374	1.46037	0.14071	0.05927	1.81437	0.05926	0.07098	1.82827	-0.04314	0.08382	1.16566	0.13896	-0.09066	1.53059	-0.01880	-0.06447	1.71680	0.02255	-0.06276	1.14465	0.14053	-0.05045	0.86433	0.24081	-0.11025	1.33411	-0.02152 
792	6.592	-0.01098	1.51660	0.18801	-0.11961	1.36339	0.04871	-0.04462	1.71657	-0.08100	0.00345	1.30399	0.23571	-0.09888	1.46507	0.13328	0.04405	0.88490	0.21479	-0.00154	1.16206	0.24396	0.00678	1.02699	0.25586	0.10246	1.48485	-0.02570	0.14471	1.32305	-0.01895	0.08376	1.46035	0.14070	0.05931	1.81438	0.05925	0.07101	1.82827	-0.04315	0.08383	1.16565	0.13896	-0.09064	1.53063	-0.01880	-0.06441	1.71680	0.02258	-0.06277	1.14466	0.14054	-0.05047	0.86433	0.24082	-0.11023	1.33412	-0.02152 
793	6.600	-0.01095	1.51659	0.18800	-0.11959	1.36339	0.04871	-0.04459	1.71657	-0.08100	0.00348	1.30400	0.23572	-0.09886	1.46507	0.13328	0.04403	0.88490	0.21480	-0.00153	1.16206	0.24398	0.00678	1.02699	0.25586	0.10248	1.48483	-0.02571	0.14471	1.32303	-0.01896	0.08378	1.46034	0.14068	0.05934	1.81438	0.05924	0.07103	1.82827	-0.04317	0.08384	1.16565	0.13896	-0.09063	1.53069	-0.01880	-0.06436	1.71680	0.02259	-0.06278	1.14466	0.14054	-0.05049	0.86433	0.24082	-0.11021	1.33412	-0.02151 
794	6.608	-0.01092	1.51659	0.18799	-0.11957	1.36340	0.04871	-0.04457	1.71656	-0.08101	0.00349	1.30401	0.23571	-0.09883	1.46508	0.13328	0.04402	0.88490	0.21480	-0.00152	1.16206	0.24399	0.00677	1.02698	0.25586	0.10249	1.48482	-0.02572	0.14472	1.32302	-0.01897	0.08381	1.46032	0.14067	0.05937	1.81438	0.05922	0.07106	1.82827	-0.04318	0.08384	1.16564	0.13895	-0.09062	1.53076	-0.01880	-0.06431	1.71680	0.02260	-0.06278	1.14466	0.14055	-0.05051	0.86433	0.24082	-0.11019	1.33413	-0.02151 
795	6.617	-0.01089	1.51658	0.18798	-0.11955	1.36340	0.04871	-0.04455	1.71656	-0.08102	0.00351	1.30401	0.23570	-0.09881	1.46508	0.13327	0.04401	0.88489	0.21480	-0.00150	1.16206	0.24399	0.00678	1.02698	0.25586	0.10251	1.48481	-0.02573	0.14472	1.32300	-0.01898	0.08383	1.46031	0.14065	0.05941	1.81439	0.05920	0.07108	1.82827	-0.04320	0.08385	1.16564	0.13895	-0.09060	1.53080	-0.01880	-0.06427	1.71680	0.02260	-0.06278	1.14466	0.14055	-0.05052	0.86433	0.24083	-0.11018	1.33413	-0.02151 
796	6.625	-0.01086	1.51657	0.18797	-0.11953	1.36341	0.04871	-0.04452	1.71656	-0.08103	0.00353	1.30401	0.23569	-0.09878	1.46508	0.13327	0.04400	0.88489	0.21480	-0.00149	1.16206	0.24397	0.00678	1.02698	0.25585	0.10253	1.48480	-0.02575	0.14473	1.32299	-0.01899	0.08386	1.46030	0.14064	0.05944	1.81439	0.05918	0.07111	1.82827	-0.04322	0.08385	1.16564	0.13894	-0.09058	1.53083	-0.01879	-0.06423	1.71680	0.02260	-0.06278	1.14466	0.14054	-0.05053	0.86433	0.24083	-0.11016	1.33414	-0.02151 
797	6.633	-0.01084	1.51656	0.18796	-0.11951	1.36341	0.04871	-0.04450	1.71656	-0.08104	0.00355	1.30401	0.23568	-0.09876	1.46509	0.13326	0.04400	0.88488	0.21481	-0.00149	1.16205	0.24395	0.00679	1.02698	0.25585	0.10255	1.48479	-0.02577	0.14474	1.32298	-0.01900	0.08388	1.46029	0.14062	0.05948	1.81439	0.05916	0.07114	1.82827	-0.04324	0.08385	1.16564	0.13893	-0.09055	1.53084	-0.01879	-0.06420	1.71681	0.02259	-0.06277	1.14465	0.14053	-0.05053	0.86433	0.24083	-0.11015	1.33414	-0.02152 
798	6.642	-0.01081	1.51656	0.18794	-0.11949	1.36342	0.04871	-0.04447	1.71656	-0.08105	0.00357	1.30401	0.23567	-0.09873	1.46509	0.13325	0.04400	0.88487	0.21481	-0.00149	1.16205	0.24392	0.00679	1.02697	0.25585	0.10257	1.48479	-0.02579	0.14475	1.32297	-0.01902	0.08391	1.46028	0.14060	0.05952	1.81440	0.05914	0.07117	1.82827	-0.04326	0.08385	1.16564	0.13892	-0.09051	1.53083	-0.01879	-0.06417	1.71682	0.02258	-0.06275	1.14465	0.14052	-0.05052	0.86433	0.24084	-0.11013	1.33415	-0.02152 
799	6.650	-0.01078	1.51655	0.18793	-0.11947	1.36343	0.04871	-0.04445	1.71656	-0.08106	0.00359	1.30401	0.23565	-0.09870	1.46509	0.13324	0.04400	0.88486	0.21481	-0.00150	1.16205	0.24388	0.00680	1.02697	0.25584	0.10259	1.48478	-0.02581	0.14477	1.32296	-0.01903	0.08393	1.46027	0.14058	0.05956	1.81440	0.05912	0.07121	1.82827	-0.04328	0.08385	1.16564	0.13891	-0.09047	1.53080	-0.01878	-0.06415	1.71683	0.02256	-0.06274	1.14464	0.14051	-0.05052	0.86432	0.24084	-0.11011	1.33415	-0.02153 
800	6.658	-0.01076	1.51654	0.18791	-0.11945	1.36344	0.04871	-0.04442	1.71657	-0.08107	0.00360	1.30401	0.23563	-0.09867	1.46509	0.13323	0.04401	0.88486	0.21481	-0.00151	1.16204	0.24383	0.00681	1.02696	0.25584	0.10261	1.48478	-0.02583	0.14478	1.32295	-0.01905	0.08396	1.46026	0.14056	0.05960	1.81440	0.05909	0.07124	1.82827	-0.04330	0.08385	1.16563	0.13889	-0.09043	1.53074	-0.01878	-0.06412	1.71684	0.02255	-0.06272	1.14464	0.14050	-0.05050	0.86432	0.24084	-0.11010	1.33416	-0.02154 
801	6.667	-0.01073	1.51653	0.18790	-0.11943	1.36345	0.04871	-0.04440	1.71657	-0.08108	0.00362	1.30401	0.23562	-0.09865	1.46509	0.13321	0.04402	0.88485	0.21481	-0.00151	1.16202	0.24379	0.00682	1.02696	0.25584	0.10264	1.48477	-0.02585	0.14480	1.32294	-0.01907	0.08398	1.46024	0.14054	0.05965	1.81440	0.05907	0.07127	1.82827	-0.04333	0.08385	1.16563	0.13888	-0.09038	1.53065	-0.01879	-0.06407	1.71684	0.02254	-0.06271	1.14463	0.14049	-0.05049	0.86432	0.24083	-0.11008	1.33416	-0.02155 
802	6.675	-0.01071	1.51652	0.18788	-0.11941	1.36347	0.04871	-0.04437	1.71658	-0.08108	0.00363	1.30401	0.23560	-0.09862	1.46509	0.13319	0.04404	0.88485	0.21481	-0.00151	1.16202	0.24376	0.00684	1.02696	0.25583	0.10266	1.48476	-0.02587	0.14481	1.32293	-0.01909	0.08400	1.46023	0.14052	0.05969	1.81440	0.05906	0.07130	1.82827	-0.04335	0.08385	1.16563	0.13887	-0.09034	1.53057	-0.01881	-0.06402	1.71685	0.02254	-0.06269	1.14462	0.14049	-0.05047	0.86432	0.24083	-0.11006	1.33416	-0.02156 
803	6.683	-0.01068	1.51652	0.18787	-0.11939	1.36349	0.04871	-0.04434	1.71658	-0.08109	0.00365	1.30400	0.23558	-0.09860	1.46510	0.13317	0.04406	0.88484	0.21480	-0.00149	1.16203	0.24374	0.00685	1.02695	0.25582	0.10268	1.48475	-0.02589	0.14482	1.32293	-0.01911	0.08403	1.46022	0.14050	0.05974	1.81440	0.05904	0.07134	1.82826	-0.04336	0.08385	1.16563	0.13886	-0.09030	1.53048	-0.01883	-0.06398	1.71685	0.02254	-0.06267	1.14461	0.14048	-0.05044	0.86431	0.24082	-0.11005	1.33417	-0.02158 
